<svg fill="#FFFFFF" xmlns="http://www.w3.org/2000/svg"  viewBox="0 0 16 16" width="16px" height="16px"><path d="M 8 0 C 5.574 0 3.5556094 1.7275313 3.0996094 4.0195312 C 3.0656094 4.0155313 3.035 4 3 4 C 2.448 4 2 4.448 2 5 C 2 5.33 2.1709688 5.6080156 2.4179688 5.7910156 C 2.7829688 5.3130156 3.352 5 4 5 C 4.601 5 5.133 5.2694531 5.5 5.6894531 C 5.867 5.2694531 6.399 5 7 5 C 8.105 5 9 5.895 9 7 C 9 8.105 8.105 9 7 9 C 6.262 9 5.6243437 8.595 5.2773438 8 L 3.5 8 A 0.5 0.5 0 0 0 3.5 7 A 0.5 0.5 0 0 0 3.4785156 8 L 3 8 C 2.448 8 2 8.448 2 9 C 2 9.552 2.448 10 3 10 L 7 10 C 7 10 8.25 11.119 8.25 12.5 C 8.25 13.881 7.125 15 5.25 15 C 5.104 15 4.967125 14.98275 4.828125 14.96875 L 5 16 L 12 16 L 11.537109 10.917969 C 12.378109 10.681969 13 9.917 13 9 C 13 8.542 12.841078 8.1231094 12.580078 7.7871094 L 12.423828 8.0292969 L 11.716797 7.7988281 L 11.460938 6.765625 L 10.839844 8.078125 L 9.9355469 7.6503906 L 11.109375 5.1699219 L 12.039062 5.2363281 L 12.367188 6.3085938 L 12.966797 5.4726562 C 12.982797 5.3166562 13 5.161 13 5 C 13 3.169 12.004156 1.5838906 10.535156 0.71289062 C 10.860156 1.0498906 11.132 1.5314375 11.25 2.2734375 L 10.263672 2.4296875 C 10.035672 0.9996875 9.184 1 8.5 1 L 8.5 0.05078125 C 8.333 0.03478125 8.171 4.6259293e-18 8 0 z M 6.5 7 A 0.5 0.5 0 0 0 6.5 8 A 0.5 0.5 0 0 0 6.5 7 z M 2.0527344 12 C 2.0197344 12.162 2 12.329 2 12.5 C 2 12.671 2.0225 12.838 2.0625 13 L 6 13 L 6 12 L 2.0527344 12 z"/></svg>